<svg id="_13" data-name="13" xmlns="http://www.w3.org/2000/svg" viewBox="0 0 172.13 98.28"><defs><style>.cls-1,.cls-19,.cls-4,.cls-5{isolation:isolate;}.cls-1{font-size:5px;}.cls-1,.cls-13,.cls-19,.cls-5{fill:#e72d2f;}.cls-1,.cls-5{font-family:HelveticaNeueLTPro-Md, Helvetica Neue LT Pro;}.cls-2{letter-spacing:-0.02em;}.cls-3{letter-spacing:-0.09em;}.cls-5{font-size:4px;}.cls-6{letter-spacing:-0.02em;}.cls-10,.cls-11,.cls-12,.cls-14,.cls-17,.cls-18,.cls-7,.cls-8{fill:none;}.cls-7,.cls-8{stroke:#191415;}.cls-10,.cls-11,.cls-12,.cls-14,.cls-7,.cls-8{stroke-width:0.5px;}.cls-12,.cls-14,.cls-8{stroke-linejoin:round;}.cls-9{fill:#191415;}.cls-10,.cls-11,.cls-12,.cls-14,.cls-17,.cls-18{stroke:#e72d2f;}.cls-11,.cls-14,.cls-17,.cls-18{stroke-linecap:round;}.cls-15{letter-spacing:-0.02em;}.cls-16{letter-spacing:0em;}.cls-17{stroke-width:0.15px;}.cls-18{stroke-width:0.25px;}.cls-19{font-size:5.39px;font-family:HelveticaNeueLTPro-Cn, Helvetica Neue LT Pro;}</style></defs><title>schematic_c13-new</title><text class="cls-1" transform="translate(0 62.79)">RedBoa<tspan class="cls-2" x="18.62" y="0">r</tspan><tspan x="20.29" y="0">d</tspan></text><text class="cls-1" transform="translate(57.03 66.67)"><tspan class="cls-3">T</tspan><tspan x="2.5" y="0">ransistor</tspan><tspan x="0" y="6">(P2N2222AG)</tspan></text><text class="cls-1" transform="translate(59.43 59.81)">SPDT Relay</text><text class="cls-1" transform="translate(15.42 38.12)">Diode<tspan x="0" y="6">(1N4148)</tspan></text><text class="cls-4" x="-4.34" y="-33.61"></text><text class="cls-4" x="-4.34" y="-33.61"></text><text class="cls-4" x="-4.34" y="-33.61"></text><text class="cls-4" x="-4.34" y="-33.61"></text><text class="cls-5" transform="translate(61.83 11)">Resistor (330 ohm)<tspan x="0" y="4.8">(Orange-Orange-B</tspan><tspan class="cls-6" x="34.17" y="4.8">r</tspan><tspan x="35.5" y="4.8">own)</tspan></text><text class="cls-4" x="-4.34" y="-33.61"></text><text class="cls-5" transform="translate(8.14 77.79)">Resistor (330 ohm)<tspan x="0" y="4.8">(Orange-Orange-B</tspan><tspan class="cls-6" x="34.17" y="4.8">r</tspan><tspan x="35.5" y="4.8">own)</tspan></text><text class="cls-5" transform="translate(129.75 60.44)">LEDs<tspan x="0" y="4.8">(Light-Emitting Diodes)</tspan></text><text class="cls-4" x="-4.34" y="-33.61"></text><line class="cls-7" x1="54.44" y1="87.79" x2="54.44" y2="82.99"/><line class="cls-7" x1="54.44" y1="82.99" x2="54.44" y2="78.19"/><line class="cls-7" x1="54.63" y1="82.99" x2="112.22" y2="82.99"/><line class="cls-7" x1="112.22" y1="68.59" x2="112.22" y2="82.99"/><polyline class="cls-8" points="126.62 68.59 126.62 82.99 112.22 82.99"/><circle class="cls-9" cx="54.44" cy="82.99" r="0.96"/><circle class="cls-9" cx="112.22" cy="82.99" r="0.96"/><line class="cls-7" x1="54.63" y1="11" x2="54.63" y2="20.6"/><line class="cls-7" x1="54.63" y1="20.6" x2="54.63" y2="25.4"/><line class="cls-7" x1="54.63" y1="25.4" x2="54.63" y2="30.2"/><polyline class="cls-7" points="40.23 35 40.23 25.4 54.63 25.4"/><line class="cls-7" x1="54.63" y1="20.6" x2="59.43" y2="20.6"/><circle class="cls-9" cx="54.63" cy="25.4" r="0.96"/><circle class="cls-9" cx="54.63" cy="20.6" r="0.96"/><line class="cls-7" x1="54.63" y1="59" x2="54.63" y2="54.2"/><line class="cls-7" x1="54.63" y1="54.2" x2="54.63" y2="49.4"/><polyline class="cls-8" points="54.63 54.2 40.23 54.2 40.23 44.6"/><circle class="cls-9" cx="54.63" cy="54.2" r="0.96"/><polyline class="cls-8" points="88.22 39.8 93.02 39.8 93.02 20.6 78.63 20.6"/><line class="cls-7" x1="45.03" y1="68.59" x2="40.23" y2="68.59"/><polyline class="cls-8" points="88.22 49.4 112.22 49.4 112.22 54.2"/><polyline class="cls-8" points="88.22 30.2 126.62 30.2 126.62 54.2"/><line class="cls-7" x1="21.03" y1="68.59" x2="16.24" y2="68.59"/><line class="cls-10" x1="40.23" y1="44.6" x2="40.23" y2="39.8"/><line class="cls-10" x1="40.23" y1="35" x2="40.23" y2="39.8"/><line class="cls-11" x1="37.83" y1="37.4" x2="40.23" y2="37.4"/><polygon class="cls-12" points="40.23 37.4 42.63 42.2 37.83 42.2 40.23 37.4"/><line class="cls-11" x1="40.23" y1="37.4" x2="42.63" y2="37.4"/><polygon class="cls-13" points="105.14 63.67 105.86 62 106.82 62.95 105.14 63.67"/><polygon class="cls-13" points="105.38 65.83 106.1 64.15 107.06 65.11 105.38 65.83"/><line class="cls-10" x1="112.22" y1="54.2" x2="112.22" y2="59"/><line class="cls-10" x1="112.22" y1="68.59" x2="112.22" y2="63.79"/><line class="cls-11" x1="114.62" y1="63.79" x2="112.22" y2="63.79"/><line class="cls-11" x1="112.22" y1="63.79" x2="109.82" y2="63.79"/><polyline class="cls-14" points="112.22 58.99 114.62 58.99 112.22 63.79"/><polyline class="cls-14" points="112.22 58.99 109.82 58.99 112.22 63.79"/><line class="cls-11" x1="112.22" y1="59" x2="112.22" y2="63.79"/><line class="cls-11" x1="108.38" y1="60.44" x2="105.74" y2="63.08"/><line class="cls-11" x1="108.62" y1="62.6" x2="105.98" y2="65.23"/><polygon class="cls-13" points="119.54 63.67 120.26 62 121.22 62.95 119.54 63.67"/><polygon class="cls-13" points="119.78 65.83 120.5 64.15 121.46 65.11 119.78 65.83"/><line class="cls-10" x1="126.62" y1="54.2" x2="126.62" y2="59"/><line class="cls-10" x1="126.62" y1="68.59" x2="126.62" y2="63.79"/><line class="cls-11" x1="129.02" y1="63.79" x2="126.62" y2="63.79"/><line class="cls-11" x1="126.62" y1="63.79" x2="124.22" y2="63.79"/><polyline class="cls-14" points="126.62 58.99 129.02 58.99 126.62 63.79"/><polyline class="cls-14" points="126.62 58.99 124.22 58.99 126.62 63.79"/><line class="cls-11" x1="126.62" y1="59" x2="126.62" y2="63.79"/><line class="cls-11" x1="122.78" y1="60.44" x2="120.14" y2="63.08"/><line class="cls-11" x1="123.02" y1="62.6" x2="120.38" y2="65.23"/><line class="cls-10" x1="54.44" y1="87.79" x2="54.44" y2="92.59"/><line class="cls-11" x1="50.6" y1="92.59" x2="58.28" y2="92.59"/><line class="cls-11" x1="52.04" y1="94.03" x2="56.84" y2="94.03"/><line class="cls-11" x1="53.48" y1="95.47" x2="55.4" y2="95.47"/><text class="cls-5" transform="translate(60.43 92.59)">GND<tspan x="0" y="4.8">(G</tspan><tspan class="cls-15" x="4.15" y="4.8">r</tspan><tspan class="cls-16" x="5.48" y="4.8">ound)</tspan></text><rect class="cls-13" x="49.35" y="63.79" width="1.44" height="9.6"/><line class="cls-10" x1="45.03" y1="68.59" x2="49.83" y2="68.59"/><line class="cls-10" x1="54.44" y1="78.19" x2="54.44" y2="73.39"/><polyline class="cls-12" points="50.41 65.87 54.63 63.79 54.63 58.99"/><line class="cls-17" x1="53.19" y1="71.47" x2="54.63" y2="73.39"/><line class="cls-17" x1="54.63" y1="73.39" x2="52.23" y2="73.39"/><line class="cls-17" x1="52.23" y1="73.39" x2="53.19" y2="71.47"/><line class="cls-10" x1="52.74" y1="72.45" x2="50.41" y2="71.28"/><line class="cls-18" x1="52.71" y1="73.15" x2="54.15" y2="73.15"/><line class="cls-18" x1="54.15" y1="73.15" x2="53.19" y2="71.95"/><line class="cls-18" x1="53.19" y1="71.95" x2="52.71" y2="72.91"/><line class="cls-18" x1="52.71" y1="72.91" x2="53.43" y2="72.91"/><line class="cls-18" x1="53.43" y1="72.91" x2="53.19" y2="72.43"/><polyline class="cls-12" points="40.23 68.59 35.43 68.59 34.95 70.51 33.75 66.67 32.55 70.51 31.35 66.67 30.15 70.51 28.95 66.67 27.75 70.51 26.55 66.67 25.83 68.59 21.03 68.59"/><polyline class="cls-12" points="59.43 20.6 64.23 20.6 64.71 18.68 65.91 22.52 67.11 18.68 68.31 22.52 69.51 18.68 70.71 22.52 71.91 18.68 73.11 22.52 73.83 20.6 78.63 20.6"/><line class="cls-10" x1="54.63" y1="11" x2="54.63" y2="6.2"/><polyline class="cls-12" points="53.19 8.6 54.63 6.21 56.07 8.6"/><text class="cls-1" transform="translate(49.35 4.29)">5 volt</text><line class="cls-10" x1="54.38" y1="30.2" x2="59.43" y2="30.2"/><line class="cls-10" x1="54.38" y1="49.4" x2="59.43" y2="49.4"/><line class="cls-10" x1="88.22" y1="39.8" x2="83.42" y2="39.8"/><line class="cls-10" x1="88.22" y1="30.2" x2="83.42" y2="30.2"/><line class="cls-10" x1="88.22" y1="49.4" x2="83.42" y2="49.4"/><line class="cls-11" x1="83.42" y1="25.4" x2="83.42" y2="30.2"/><line class="cls-11" x1="83.42" y1="30.2" x2="83.42" y2="39.8"/><line class="cls-11" x1="83.42" y1="39.8" x2="83.42" y2="49.4"/><line class="cls-11" x1="83.42" y1="49.4" x2="83.42" y2="54.2"/><line class="cls-11" x1="83.42" y1="54.2" x2="59.43" y2="54.2"/><line class="cls-11" x1="59.43" y1="54.2" x2="59.43" y2="49.4"/><line class="cls-11" x1="59.43" y1="49.4" x2="59.43" y2="30.2"/><line class="cls-11" x1="59.43" y1="30.2" x2="59.43" y2="25.4"/><line class="cls-11" x1="59.43" y1="25.4" x2="83.42" y2="25.4"/><path class="cls-11" d="M68.56,70a3.13,3.13,0,0,0,0-6.24" transform="translate(-4.34 -33.61)"/><path class="cls-11" d="M68.56,67.17a1.5,1.5,0,1,0,0,2.88" transform="translate(-4.34 -33.61)"/><path class="cls-11" d="M68.56,74.85a4,4,0,0,0,0-7.68" transform="translate(-4.34 -33.61)"/><path class="cls-11" d="M68.56,72a1.5,1.5,0,1,0,0,2.88" transform="translate(-4.34 -33.61)"/><path class="cls-11" d="M68.56,79.65a4,4,0,0,0,0-7.68" transform="translate(-4.34 -33.61)"/><path class="cls-11" d="M68.56,76.77a1.5,1.5,0,1,0,0,2.88" transform="translate(-4.34 -33.61)"/><path class="cls-11" d="M68.56,83a3.13,3.13,0,0,0,0-6.24" transform="translate(-4.34 -33.61)"/><line class="cls-11" x1="83.42" y1="30.2" x2="73.83" y2="30.2"/><line class="cls-11" x1="73.83" y1="30.2" x2="73.83" y2="35"/><line class="cls-11" x1="83.42" y1="49.4" x2="73.83" y2="49.4"/><line class="cls-11" x1="73.83" y1="49.4" x2="73.83" y2="44.6"/><line class="cls-11" x1="83.42" y1="39.8" x2="78.63" y2="39.8"/><line class="cls-11" x1="78.63" y1="39.8" x2="75.27" y2="36.44"/><line class="cls-11" x1="73.83" y1="35" x2="75.27" y2="33.56"/><line class="cls-11" x1="73.83" y1="35" x2="72.39" y2="33.56"/><line class="cls-11" x1="73.83" y1="44.6" x2="75.27" y2="46.04"/><line class="cls-11" x1="73.83" y1="44.6" x2="72.39" y2="46.04"/><line class="cls-11" x1="59.43" y1="30.2" x2="64.23" y2="30.2"/><line class="cls-11" x1="59.43" y1="49.4" x2="64.23" y2="49.4"/><text class="cls-19" transform="translate(1.84 70.59)">PIN 13</text><rect class="cls-10" x="0.68" y="65.25" width="15.56" height="6.69"/></svg>